<svg xmlns="http://www.w3.org/2000/svg" viewBox="0 0 473.8 378.31"><defs><style>.cls-1{fill:#9987ff;}.cls-2{fill:#fff;}.cls-3{fill:#89cee0;}.cls-4{fill:#6154c7;}.cls-5{fill:#453878;}.cls-6{fill:#ff8f00;}.cls-7{fill:#373331;}.cls-8{fill:none;}</style></defs><g id="Layer_2" data-name="Layer 2"><g id="Layer_1-2" data-name="Layer 1"><path class="cls-1" d="M93.65,281.33c-29-.24-52.18-7.9-69-22.75-14-12.4-22.67-30.49-23.16-48.37a54.47,54.47,0,0,1,16.2-40.7,47.62,47.62,0,0,1,7.47-5.92L24.8,163a61.3,61.3,0,0,1,.52-71.68,46.69,46.69,0,0,1-8.26-21.69A38,38,0,0,1,15.5,54.38C18.8,23.74,61.25,1.5,116.46,1.5a216.32,216.32,0,0,1,22.77,1.23,206.44,206.44,0,0,1,40.38,8.4l.26.09C201.29,18.07,219.19,28,231.64,40c12.91,12.39,19,26.06,17.52,39.53a36.2,36.2,0,0,1-.86,4.83,32.13,32.13,0,0,1-3,10.7c-.3.62-.62,1.23-1,1.84l1.29.1c16.76-9.29,40.5-14.62,65.22-14.62,26.24,0,50.76,5.83,67.68,16,2.54-11.22,5.72-20.27,9.69-27.62,9.31-17.22,24.45-26.7,42.64-26.7,12.79,0,24,5.4,31.49,15.2a45.85,45.85,0,0,1,9.18,28.21c0,8.46-2,17.26-6,26.9a138.11,138.11,0,0,1-8.32,16.9,37.2,37.2,0,0,1,3.15,2.34A31.77,31.77,0,0,1,471.81,158a33.49,33.49,0,0,1-6.75,20.26l-.17.22a68.56,68.56,0,0,1-17.08,16.1,30.59,30.59,0,0,1,17.32,11,31.31,31.31,0,0,1,7.17,19.72,32.05,32.05,0,0,1-3.37,14.46l-.05.09c-3.27,6.41-9.87,15.13-23.05,20.78a69.85,69.85,0,0,1-27.63,5.19h-.34a53.16,53.16,0,0,1-21.35-4.34,159.39,159.39,0,0,1-43.7,5.87c-2.84,0-5.71-.07-8.55-.21a43.31,43.31,0,0,1-25.9,8.45,41.71,41.71,0,0,1-12.56-1.92,44.65,44.65,0,0,1-13,1.92,41.12,41.12,0,0,1-28.28-11.28l-.56.1a156.3,156.3,0,0,1-47.19,6.94c-19.65,0-38.22-3.2-53.76-9.27-25.09,17.87-58.5,19.27-68.21,19.27Z"/><path class="cls-2" d="M116.45,3a211.08,211.08,0,0,1,22.62,1.23,204.06,204.06,0,0,1,40.08,8.33l.27.08C222,26.28,250.55,52.5,247.67,79.33a35.91,35.91,0,0,1-.85,4.74,30.72,30.72,0,0,1-2.9,10.3,28.8,28.8,0,0,1-2.28,3.88c1.45,0,2.87.11,4.27.25,16-9,39.16-14.66,64.9-14.66,27.77,0,52.51,6.58,68.54,16.84l.18-.07c2.57-11.93,5.87-21.55,10-29.14,9-16.7,23.71-25.91,41.32-25.91,12.31,0,23.07,5.19,30.3,14.61A44.38,44.38,0,0,1,470,87.47c0,8.26-1.92,16.87-5.88,26.32a133.47,133.47,0,0,1-9,18,34,34,0,0,1,4.24,3A30.22,30.22,0,0,1,470.31,158a32,32,0,0,1-6.45,19.36,1.56,1.56,0,0,1-.16.2,65.27,65.27,0,0,1-19.07,17.21c.1.28.21.56.3.84a28.92,28.92,0,0,1,19,10.89,29.8,29.8,0,0,1,6.84,18.78,30.55,30.55,0,0,1-3.21,13.79l-.09.17c-3.11,6.1-9.5,14.52-22.26,20a68.37,68.37,0,0,1-27,5.07h-.34a51.44,51.44,0,0,1-21.25-4.44,156.28,156.28,0,0,1-43.8,6q-4.56,0-9-.23a41.62,41.62,0,0,1-25.43,8.47,40.22,40.22,0,0,1-12.55-2,43,43,0,0,1-13,2A39.37,39.37,0,0,1,265,262.67c-.46.1-.93.19-1.4.27a154.21,154.21,0,0,1-46.83,6.9c-20.36,0-39.11-3.54-54-9.47-24.52,17.87-57.31,19.47-68,19.47H93.66c-28.61-.24-51.48-7.77-68-22.37C12,245.33,3.5,227.65,3,210.17a53,53,0,0,1,15.76-39.6A47.24,47.24,0,0,1,27.36,164c-.45-.59-.9-1.19-1.33-1.81a59.91,59.91,0,0,1,1.16-70.81,44.39,44.39,0,0,1-5.61-9.94,45,45,0,0,1-3-12.06A36.16,36.16,0,0,1,17,54.54C20.27,24.09,62.91,3,116.45,3m0-3h0C89.87,0,65,5.21,46.51,14.68,27.23,24.53,15.69,38.57,14,54.22A39.2,39.2,0,0,0,15.59,70a48.11,48.11,0,0,0,7.89,21.36,62.79,62.79,0,0,0-.4,71.85,47.72,47.72,0,0,0-6.41,5.25A56,56,0,0,0,0,210.25c.5,18.29,9.35,36.78,23.67,49.46,17.06,15.09,40.59,22.87,69.94,23.12h1.21c9.74,0,43-1.4,68.41-19.09,15.57,5.95,34.05,9.09,53.56,9.09a157.94,157.94,0,0,0,47.31-6.9,42.63,42.63,0,0,0,28.72,11.14,46,46,0,0,0,13-1.85,43.12,43.12,0,0,0,12.57,1.85,45,45,0,0,0,26.37-8.42c2.68.12,5.39.18,8.08.18a161.39,161.39,0,0,0,43.6-5.78,54.74,54.74,0,0,0,21.45,4.25h.34A71.32,71.32,0,0,0,446.42,262c13.59-5.83,20.42-14.85,23.75-21.39l.05-.1,0-.09a33.49,33.49,0,0,0,3.53-15.13,32.81,32.81,0,0,0-7.49-20.66,32.4,32.4,0,0,0-15-10.62,72.28,72.28,0,0,0,14.76-14.61l.19-.24a35,35,0,0,0,7-21.15,33.24,33.24,0,0,0-12-25.55c-.69-.57-1.4-1.12-2.12-1.64A142.92,142.92,0,0,0,466.87,115C471,105.12,473,96.13,473,87.47a47.34,47.34,0,0,0-9.49-29.12c-7.81-10.18-19.42-15.79-32.68-15.79-18.76,0-34.37,9.76-43.95,27.48-3.81,7-6.89,15.58-9.38,26-17.07-9.71-41.08-15.22-66.68-15.22C287,80.84,264,85.76,247.2,94.4a33.34,33.34,0,0,0,2.59-9.82,39.41,39.41,0,0,0,.86-4.93c1.5-14-4.72-28.05-18-40.77C220.07,26.77,202,16.71,180.33,9.79h-.06L180,9.69a207.47,207.47,0,0,0-40.64-8.45A216.67,216.67,0,0,0,116.46,0Z"/><path class="cls-3" d="M348.81,285.31c0-13.86-7.22-24.81-16.61-25.46a5.94,5.94,0,0,1,.48,6.12c5.62,1.2,10.13,9.56,10.13,19.34,0,8.84-3.68,16.51-8.53,18.79a6,6,0,0,1,3,5.21v0C344.08,305.83,348.81,296.53,348.81,285.31Z"/><path class="cls-4" d="M443.38,159.46a6.8,6.8,0,0,0-4.19-1.69c-1.5-.05-2.41.08-2.73.4Q426,170.41,419.71,170.41a7,7,0,0,1-5.56-2.82c-1.56-1.88-2.34-5-2.34-9.42v-2.09q1.94-3.06,9.51-13.61t11.67-17a106.76,106.76,0,0,0,8.06-15.87Q445,100.19,445,92.94a19.24,19.24,0,0,0-3.7-12.07Q437.59,76,430.82,76q-12.4,0-19.33,12.81t-10.47,40a19.91,19.91,0,0,0-5.15-.65q-11.28,0-19.89,10.55a36.36,36.36,0,0,0-8.62,23.6,26,26,0,0,0,.19,3q-4.73,3.3-7.27,3.3-5,0,2.57-18.84,4-10.31,4-14.66,0-7.08-7.41-7.09l-1.61.16q-6.93.66-14.82,7.49t-15.13,19.41a104.89,104.89,0,0,1,4.34-15.7q2.1-5.24,2.1-6.85a3.69,3.69,0,0,0-1.69-2.9,7.19,7.19,0,0,0-4.43-1.28q-5,0-7.57,6.44a98.22,98.22,0,0,0-4.41,13.38,41.11,41.11,0,0,1-9.44,4.66,30,30,0,0,0,.48-5.16,19.84,19.84,0,0,0-4.75-13.61q-4.76-5.39-12.8-5.39-12.24,0-20.46,9.74a34.35,34.35,0,0,0-8.12,20.48l-4,3.68q-3.63,3.3-5.64,4.83a28.1,28.1,0,0,1-5.72,3.14,19.68,19.68,0,0,1-8,1.61,10.27,10.27,0,0,1-7.41-3.06,11.16,11.16,0,0,1-3.14-8.37q0-10.16,3.95-15.06t8.45-4.91q4.51,0,4.51,2.73a8.61,8.61,0,0,1-1,3.47,8.5,8.5,0,0,0-1,3.3,5.93,5.93,0,0,0,1.45,3.86,4,4,0,0,0,3.06,1.78c2.9,0,5.39-1.34,7.49-4a15.13,15.13,0,0,0,3.14-9.58,12.55,12.55,0,0,0-4.43-9.59q-4.44-4-11.68-4a24.07,24.07,0,0,0-20,9.74,33.8,33.8,0,0,0-7.57,21.18c0,.55,0,1.09,0,1.62a35.84,35.84,0,0,1-10.26,6.27,33.61,33.61,0,0,1-12.72,2.58q-6.36,0-8.62-4.19,14.34-2.42,21.59-8.13t7.24-13.29q0-7.56-4-11.59t-11-4q-11.92,0-20.62,10.63t-8.7,21.9q0,11.28,6.77,16.35a26.48,26.48,0,0,0,16.34,5.07,38.19,38.19,0,0,0,18.12-4.51,42.2,42.2,0,0,0,8.46-5.74,17.42,17.42,0,0,0,5.88,6.71,26.54,26.54,0,0,0,13.53,3.54q15,0,27-12.64a19.55,19.55,0,0,0,4.36,6.68q5.88,6,15.06,6,15.94,0,23-18.68a86.94,86.94,0,0,0,9-3.5q-.42,4-.47,8,0,13.53,7.09,13.53a6.48,6.48,0,0,0,4.59-1.45,14.68,14.68,0,0,0,3-5.48q4.18-11.91,9.74-19.32t9.58-8.86h.33c.42,0,.64.3.64.88s-1,4-3,10.15-3,11-3,14.58q0,9.5,10.95,9.5,8.26,0,18.17-6.6a18.26,18.26,0,0,0,1.4,1.52,19,19,0,0,0,13.77,5.56q10.14,0,14.33-10.79a16,16,0,0,0,7.17,7.65,20.59,20.59,0,0,0,10.07,2.82q14.32,0,25.44-14.5a7,7,0,0,0,1.45-4.34A5,5,0,0,0,443.38,159.46Zm-24.8-54.68q3.71-13.29,10.14-13.28c1.83,0,2.74,1.12,2.74,3.38q0,10.78-19.32,44.61Q414.87,118.07,418.58,104.78Zm-233.2,41.8q4.5-5.16,8.94-5.16t4.42,3.06q0,3.87-6.12,8.13a36.75,36.75,0,0,1-11.75,5.72A17.31,17.31,0,0,1,185.38,146.58Zm105,21.74a9,9,0,0,1-7.08,2.9,7.71,7.71,0,0,1-6.69-3.3c-1.56-2.21-2.33-5.34-2.33-9.43a21.07,21.07,0,0,1,4-12q4-5.87,10.63-5.87h.16l2.9.48q-4.83,6-4.83,11.84t6.44,8.29A13.52,13.52,0,0,1,290.38,168.32ZM398.61,150.6q-1.94,18.84-9.18,18.84Q382,169.44,382,159a22.36,22.36,0,0,1,4.59-13.61q4.59-6.19,13.29-7Z"/><path class="cls-4" d="M94.94,240.15c12.48.1,29.87-.9,37.54-12.56,9.8-14.89-2-28.43-14.38-36.28-11.51-7.27-23.79-11-37.07-16.57-11.42-4.79-27.37-11.2-34.51-21.42-9.8-14-8.57-32.78,3.71-44.91C62.14,96.63,78.64,91.46,95,90.05c17.59-1.52,37.66-.14,52.54,10.39,14.11,10,17.23,28.51,9.05,43.47-3.63,6.63-10.15,14.42-18.33,14.65-9.65.28-15.28-8.94-9.26-16.79,4.56-6,9-11.28,7.07-19.45-1.3-5.63-5.78-9.07-10.93-11.09-13.58-5.34-34.34-5.22-46.67,3-6.87,4.58-10.82,12-8.92,20.31,1.86,8.12,11.76,16.76,30.76,24.76,18.66,7.86,35.8,12.61,51,25,6.11,5,12.37,15.24,13.32,22.77,5.06,40.18-38.62,53.5-70.76,53.22-18.17-.15-37.6-3.68-51.62-16.09s-20.72-35.75-5.91-50.38c4.54-4.48,18.14-10.83,23.11-3.72,2.28,3.26.49,7.48-1.07,10.56-2.56,5.05-4.7,8.86-4.42,14.73C55,236.71,77.86,240,94.94,240.15Z"/><path class="cls-4" d="M131.31,132.31c0,6.08-18,21-29.5,21-8.5,0-27.5-14.92-27.5-21s12.76-11,28.5-11S131.31,126.24,131.31,132.31Z"/><path class="cls-4" d="M73.31,226.73c0-5.3,14.82-18.31,24.85-18.31,7.41,0,24.84,13,24.84,18.31s-11.12,9.58-24.84,9.58S73.31,232,73.31,226.73Z"/><circle class="cls-5" cx="98.3" cy="203.15" r="2.27"/><circle class="cls-5" cx="98.3" cy="194.07" r="2.27"/><path class="cls-2" d="M447.44,226.59a3.73,3.73,0,0,0-2.77-1.7,2.64,2.64,0,0,0-2.21,1q-5.31,6.79-9.95,8.71a6.53,6.53,0,0,0,1-3.39q0-2.94-2.72-6.5a80,80,0,0,0-5.43-6.45q-2.72-2.9-2.71-4.36a5.28,5.28,0,0,1,.79-1.86,6.61,6.61,0,0,0,.79-3.28,3.81,3.81,0,0,0-1.41-3.06,5.06,5.06,0,0,0-3.34-1.19,6.7,6.7,0,0,0-5.88,3.28c.19,0-1.2,2.84-4.16,8.49-3.87,1.5-6.32,2.26-7.32,2.26-1.17,0-1.76-.19-1.76-.56,0-.08.42-1.1,1.25-3.06a13.79,13.79,0,0,0,1.24-5.32c0-2.48-1.88-3.73-5.65-3.73q-2.84,0-7.92,6.85a66,66,0,0,0-7.81,13.17,78.3,78.3,0,0,0,2.32-9,63.58,63.58,0,0,0,1.42-7.69,3.37,3.37,0,0,0-1.08-2.32,3.67,3.67,0,0,0-2.77-1.13q-4.31,0-6.45,5.54a74.46,74.46,0,0,0-2.79,16.54,2.76,2.76,0,0,0-.37.31A25.07,25.07,0,0,1,364,233a23.6,23.6,0,0,1-8.94,1.81q-4.47,0-6.05-2.94,10.07-1.69,15.16-5.71t5.09-9.34c0-3.54-.95-6.25-2.83-8.14a10.42,10.42,0,0,0-7.69-2.83q-8.37,0-14.48,7.47t-6.11,15.38q0,7.92,4.75,11.48a18.56,18.56,0,0,0,11.48,3.57,26.89,26.89,0,0,0,12.73-3.17,31.28,31.28,0,0,0,5-3.24c.49,3.81,2.29,5.73,5.4,5.73a6.17,6.17,0,0,0,5.89-3.4q2.82-7.68,5.43-13.4t2.94-6.51a9.94,9.94,0,0,0-.23,2q0,5.66,8.09,5.66a21.41,21.41,0,0,0,4.06-.4c-1.74,3.2-2.89,5.23-3.44,6.05a19.3,19.3,0,0,0,8.26,7.75,26.31,26.31,0,0,0,12.33,2.89h.34a43.46,43.46,0,0,0,17.19-3.06q7.13-3,9.84-8.37a5.69,5.69,0,0,0,.57-2.6A5.25,5.25,0,0,0,447.44,226.59Zm-96-8.26c2.1-2.41,4.2-3.62,6.27-3.62s3.11.72,3.11,2.15q0,2.71-4.3,5.72a25.81,25.81,0,0,1-8.25,4A12.17,12.17,0,0,1,351.41,218.33Zm67.3,17.88h-.79q-1.25,0-5.09-2.15c.07-.15.24-.59.51-1.3s.92-2.13,2-4.25l3.85-7.91q4.63,6.78,4.64,11.19T418.71,236.21Z"/><path class="cls-2" d="M327.34,224.48h5.89c2.62,0,3.09-1.41,3.09-3.37,0-5-5.52-6-10.66-6-1.22,0-2.52,0-3.83.09,3.18-8.41,7.1-15.24,7.1-20.75,0-2.81-1.4-5.15-4.39-5.15-4.3,0-11.69,12.16-15.61,26.84-4.49.46-9.17,1.12-13.56,1.77,3.27-9.72,8-17.39,8-23.46,0-2.81-1.4-5.15-4.4-5.15-4.67,0-13.18,14.68-16.64,31.23-2.33.56-4.48,1.12-6.17,1.68a5.47,5.47,0,0,0-2.8,3.13,1.54,1.54,0,0,0-.6-.13,3.58,3.58,0,0,0-2.49,1.25,21.88,21.88,0,0,1-5,5.15c-1.85,1.32-3.33,2-4.46,2s-1.7-.67-1.7-2a3.69,3.69,0,0,1,.11-1l3.17-18.21a4.21,4.21,0,0,0,.11-1.13q0-3.17-3.28-3.17h-.68l-3.05.34.11-.91c0-1.65-1.54-2.48-4.64-2.48q-7.92,0-15.32,7.24a24.11,24.11,0,0,0-7.41,18,18.45,18.45,0,0,0,.24,3c-2.36,2-4.4,3.07-6.12,3.07-2,0-2.94-1.51-2.94-4.53a29.81,29.81,0,0,1,1.24-8.42l2.37-8.09a43.48,43.48,0,0,0,1.93-7,2.6,2.6,0,0,0-1.3-1.92,5.69,5.69,0,0,0-3.45-1q-9.16,0-18.33,20.47c.3-1.43.75-3.46,1.36-6.11q1.92-8.37,1.92-10.4a3.53,3.53,0,0,0-1.58-3.11,5.76,5.76,0,0,0-3.28-1.08q-3.39,0-8,5.26t-9.1,16.46q0-6.68,3.28-17.42a3.79,3.79,0,0,0,.11-1.19,2.23,2.23,0,0,0-1-1.75,3.92,3.92,0,0,0-2.49-.79h-.22a4.51,4.51,0,0,0-4.3,3.05,69.12,69.12,0,0,0-4.3,22.63,25.16,25.16,0,0,0,.23,2.94q.23,8.7,5.65,8.71a5,5,0,0,0,3.28-1.25,11.92,11.92,0,0,0,2.78-4c.86-1.81,1.75-3.67,2.65-5.6l2-4.18c.42-.87,1-2,1.76-3.34a80.4,80.4,0,0,1,5.2-8q-3.84,11.88-4.19,18.33l-.11,2q0,5.77,5.43,5.77,2.49,0,4.19-3,5.88-13.12,8.25-17.2c1.59-2.71,3-4.9,4.19-6.56Q210.7,226.83,210.7,235a8.88,8.88,0,0,0,2,6q2,2.37,6.73,2.37a19.75,19.75,0,0,0,10.07-3.22c.47-.28.92-.57,1.37-.88.16.22.32.44.5.65q3.16,3.8,9,3.79t9.78-5.54l1.47-2a7.23,7.23,0,0,0,2.43,4.87,8.81,8.81,0,0,0,6.17,2,14.09,14.09,0,0,0,8.2-3.05,33,33,0,0,0,7.07-6.79,7.08,7.08,0,0,0,.28-1.59l.51,0a22,22,0,0,0,3.83-.37,2.3,2.3,0,0,0,.75-.19c-.1,1.31-.1,2.52-.1,3.74,0,13.84,7.58,18.79,15.06,18.79,5.61,0,11.21-2.8,13.27-6.73a13.85,13.85,0,0,0,12.25,6.73c7.1,0,14.12-4.58,14.12-10.09a3,3,0,0,0-2.62-3c-2.9,0-4.86,3.56-9.63,3.56-3.27,0-5.42-3.84-5.42-8.89a51.31,51.31,0,0,1,1.12-10.28C322,224.57,324.91,224.48,327.34,224.48Zm-76.15-.38q-1.12,5.21-3.56,7.64a7.27,7.27,0,0,1-5.15,2.43,3.93,3.93,0,0,1-3.95-2.24l.1-.14c.08-.07.12-.33.12-.79a2.46,2.46,0,0,0-.75-1.33c0-.27,0-.53,0-.82q0-5.31,4.58-11a15,15,0,0,1,11.25-6Zm55.58,16.46c-2.61.37-4.67,3.46-9.06,3.46-3.28,0-5.43-3.84-5.43-8.89a37.58,37.58,0,0,1,.47-6.54c4.68-.94,9.54-1.68,14.12-2.34a65.13,65.13,0,0,0-.56,8.51A28.37,28.37,0,0,0,306.77,240.56Z"/><path class="cls-6" d="M284.93,376.81a13.51,13.51,0,0,1-13.28-11l-7.31-39.33a13.53,13.53,0,0,1,10.8-15.74l111.09-20.66a13.65,13.65,0,0,1,2.46-.23,13.5,13.5,0,0,1,13.28,11l7.32,39.33a13.53,13.53,0,0,1-10.8,15.74l-111.1,20.66A13.57,13.57,0,0,1,284.93,376.81Z"/><path class="cls-2" d="M388.69,291.32a12,12,0,0,1,11.81,9.8l7.32,39.33a12,12,0,0,1-9.61,14L287.12,375.11a12.65,12.65,0,0,1-2.19.2,12,12,0,0,1-11.8-9.81l-7.32-39.32a12,12,0,0,1,9.6-14l111.1-20.67a12.45,12.45,0,0,1,2.18-.2m0-3a14.75,14.75,0,0,0-2.73.25l-111.1,20.67a15,15,0,0,0-12,17.49l7.32,39.32a15,15,0,0,0,14.75,12.26,15.87,15.87,0,0,0,2.74-.25l111.09-20.67a15,15,0,0,0,12-17.49l-7.31-39.32a15,15,0,0,0-14.76-12.26Z"/><path class="cls-5" d="M278.72,349q-1.82-9,.81-15.41t8.81-7.6q5-1,8.22,2a15.5,15.5,0,0,1,4.29,8.48c.16.82.26,1.45.31,1.88q1.17,9.57-1.64,14.63a11.44,11.44,0,0,1-8,6.1c-3.45.69-6.26.08-8.46-1.83A14.19,14.19,0,0,1,278.72,349Zm10.49-17q-2.38.48-3.53,4t-.36,9.74a14.17,14.17,0,0,0,.26,1.63q1.35,6.76,5.16,6,5.37-1.08,3.86-12.93c-.17-1.3-.32-2.24-.43-2.8Q292.9,331.25,289.21,332Z"/><path class="cls-5" d="M305.64,343.6q-1.81-9,.81-15.4t8.81-7.61q5-1,8.22,2a15.4,15.4,0,0,1,4.28,8.47,17.88,17.88,0,0,1,.31,1.89q1.19,9.57-1.63,14.63a11.46,11.46,0,0,1-8,6.1q-5.16,1-8.45-1.83A14.13,14.13,0,0,1,305.64,343.6Zm10.49-17c-1.59.32-2.77,1.66-3.53,4s-.88,5.6-.36,9.74a16.22,16.22,0,0,0,.25,1.63q1.36,6.78,5.17,6,5.35-1.08,3.86-12.93c-.18-1.31-.32-2.24-.43-2.8Q319.82,325.86,316.13,326.59Z"/><path class="cls-5" d="M341.23,333.25a4,4,0,0,1-3.16-.51,4.36,4.36,0,0,1-1.68-2.86,4.81,4.81,0,0,1,.51-3.49,4.13,4.13,0,0,1,2.91-1.92,4.42,4.42,0,0,1,3.3.41,4.06,4.06,0,0,1,1.71,2.81,4.87,4.87,0,0,1-.53,3.57A4.36,4.36,0,0,1,341.23,333.25Zm1.67,15q-4.12.82-4.92-3.11a4.93,4.93,0,0,1,.55-3.64,4.38,4.38,0,0,1,3-2c2.71-.54,4.33.54,4.88,3.25a4.76,4.76,0,0,1-.53,3.57A4.41,4.41,0,0,1,342.9,348.29Z"/><path class="cls-5" d="M356.9,317a5.09,5.09,0,0,0-3.13,2.17,4.32,4.32,0,0,0-.6,2.7c.13.85.26,1.62.4,2.31l.28,1.08a4.07,4.07,0,0,1-.2,2.52,2.94,2.94,0,0,1-2.35,1.48q-3.17.65-4.19-4.49t1.53-8.44q2.57-3.3,7.92-4.37,5.16-1,8.47,1.56a11.24,11.24,0,0,1,4.16,6.85,22.05,22.05,0,0,1,.08,8.45,24.79,24.79,0,0,1-3,8,4,4,0,0,0,2.53.56,2.7,2.7,0,0,0,1.73-1.25c.46-.7.87-1.08,1.24-1.15a.72.72,0,0,1,.78.18,2.9,2.9,0,0,1,.39,1.13l.09.45a6.92,6.92,0,0,1-.33,3.86,3.73,3.73,0,0,1-3,2.38c-1.53.31-3.67-.2-6.45-1.53a9.61,9.61,0,0,1-5.74,3.84,7.47,7.47,0,0,1-5.43-.62,5.82,5.82,0,0,1-2.7-4.1,5.74,5.74,0,0,1,.69-4.6,6.75,6.75,0,0,1,4.41-2.43,11.43,11.43,0,0,1,6.85,1,13.16,13.16,0,0,0,2.18-5.51,16.71,16.71,0,0,0,0-6.23,9.73,9.73,0,0,0-2.15-4.71,3.84,3.84,0,0,0-3.81-1.25Zm-3.1,22.71c.2,1,.92,1.42,2.15,1.18a7,7,0,0,0,3.77-2.77,9.86,9.86,0,0,0-4.43-.32C354.09,338,353.59,338.63,353.8,339.66Z"/><path class="cls-5" d="M375,329.71q-1.82-9,.8-15.41t8.82-7.6q5-1,8.22,2a15.43,15.43,0,0,1,4.28,8.48c.16.82.27,1.45.31,1.88q1.19,9.57-1.63,14.63a11.47,11.47,0,0,1-8,6.1q-5.16,1-8.46-1.83A14.18,14.18,0,0,1,375,329.71Zm10.49-17c-1.6.32-2.77,1.65-3.53,4s-.89,5.59-.37,9.74c0,.39.12.94.26,1.62q1.37,6.78,5.17,6,5.36-1.08,3.85-12.93c-.17-1.31-.31-2.24-.42-2.8Q389.13,312,385.46,312.7Z"/><circle class="cls-7" cx="331.31" cy="309.31" r="6"/><circle class="cls-7" cx="327.31" cy="263.31" r="6"/><path class="cls-7" d="M325.31,309.33a6,6,0,0,0,12,0,12.9,12.9,0,0,1-12,0Z"/><path class="cls-8" d="M327.31,269.31a5.94,5.94,0,0,1-2.11-.39c-3.21,3.51-5.39,9.61-5.39,16.39,0,8.84,3.69,16.51,8.54,18.79a5.92,5.92,0,0,1,3-.79,6,6,0,0,1,3,.79c4.85-2.28,8.53-10,8.53-18.79,0-9.78-4.51-18.14-10.13-19.34A6,6,0,0,1,327.31,269.31Z"/><path class="cls-7" d="M328.35,304.1a6.55,6.55,0,0,0,5.93,0,6,6,0,0,0-3-.79A5.92,5.92,0,0,0,328.35,304.1Z"/><path class="cls-7" d="M325.2,268.92a6,6,0,0,0,7.48-2.95,6.93,6.93,0,0,0-1.37-.16A8.41,8.41,0,0,0,325.2,268.92Z"/><path class="cls-7" d="M332.2,259.85a6,6,0,0,0-10.89,3.46,6.27,6.27,0,0,0,.07.88,14.09,14.09,0,0,1,9.93-4.38C331.61,259.81,331.91,259.83,332.2,259.85Z"/><path class="cls-3" d="M328.35,304.1c-4.85-2.28-8.54-10-8.54-18.79,0-6.78,2.18-12.88,5.39-16.39a6,6,0,0,1-3.82-4.73c-4.6,4.55-7.57,12.24-7.57,21.12,0,11.22,4.73,20.52,11.5,24v0A6,6,0,0,1,328.35,304.1Z"/><path class="cls-3" d="M334.28,304.1a6.55,6.55,0,0,1-5.93,0,6,6,0,0,0-3,5.21v0a12.9,12.9,0,0,0,12,0v0A6,6,0,0,0,334.28,304.1Z"/><path class="cls-3" d="M325.2,268.92a8.41,8.41,0,0,1,6.11-3.11,6.93,6.93,0,0,1,1.37.16,5.94,5.94,0,0,0-.48-6.12c-.29,0-.59,0-.89,0a14.09,14.09,0,0,0-9.93,4.38A6,6,0,0,0,325.2,268.92Z"/><path class="cls-5" d="M446.38,158.46a6.8,6.8,0,0,0-4.19-1.69c-1.5-.05-2.41.08-2.73.4Q429,169.41,422.71,169.41a7,7,0,0,1-5.56-2.82c-1.56-1.88-2.34-5-2.34-9.42v-2.09q1.94-3.06,9.51-13.61t11.67-17a106.76,106.76,0,0,0,8.06-15.87Q448,99.19,448,91.94a19.24,19.24,0,0,0-3.7-12.07Q440.59,75,433.82,75q-12.4,0-19.33,12.81t-10.47,40a19.91,19.91,0,0,0-5.15-.65q-11.28,0-19.89,10.55a36.36,36.36,0,0,0-8.62,23.6,26,26,0,0,0,.19,3q-4.73,3.3-7.27,3.3-5,0,2.57-18.84,4-10.31,4-14.66,0-7.08-7.41-7.09l-1.61.16q-6.93.66-14.82,7.49t-15.13,19.41a104.89,104.89,0,0,1,4.34-15.7q2.1-5.24,2.1-6.85a3.69,3.69,0,0,0-1.69-2.9,7.19,7.19,0,0,0-4.43-1.28q-5,0-7.57,6.44a98.22,98.22,0,0,0-4.41,13.38,41.11,41.11,0,0,1-9.44,4.66,30,30,0,0,0,.48-5.16,19.84,19.84,0,0,0-4.75-13.61q-4.76-5.39-12.8-5.39-12.24,0-20.46,9.74a34.35,34.35,0,0,0-8.12,20.48l-4,3.68q-3.63,3.3-5.64,4.83a28.1,28.1,0,0,1-5.72,3.14,19.68,19.68,0,0,1-8,1.61,10.27,10.27,0,0,1-7.41-3.06,11.16,11.16,0,0,1-3.14-8.37q0-10.16,3.95-15.06t8.45-4.91q4.51,0,4.51,2.73a8.61,8.61,0,0,1-1,3.47,8.5,8.5,0,0,0-1,3.3,5.93,5.93,0,0,0,1.45,3.86,4,4,0,0,0,3.06,1.78c2.9,0,5.39-1.34,7.49-4a15.13,15.13,0,0,0,3.14-9.58,12.55,12.55,0,0,0-4.43-9.59q-4.44-4-11.68-4a24.07,24.07,0,0,0-20,9.74,33.8,33.8,0,0,0-7.57,21.18c0,.55,0,1.09,0,1.62a35.84,35.84,0,0,1-10.26,6.27,33.61,33.61,0,0,1-12.72,2.58q-6.36,0-8.62-4.19,14.34-2.42,21.59-8.13t7.24-13.29q0-7.56-4-11.59t-11-4q-11.92,0-20.62,10.63t-8.7,21.9q0,11.28,6.77,16.35a26.48,26.48,0,0,0,16.34,5.07,38.19,38.19,0,0,0,18.12-4.51,42.2,42.2,0,0,0,8.46-5.74,17.42,17.42,0,0,0,5.88,6.71,26.54,26.54,0,0,0,13.53,3.54q15,0,27-12.64a19.55,19.55,0,0,0,4.36,6.68q5.88,6,15.06,6,15.94,0,23-18.68a86.94,86.94,0,0,0,9-3.5q-.42,4-.47,8,0,13.53,7.09,13.53a6.48,6.48,0,0,0,4.59-1.45,14.68,14.68,0,0,0,3-5.48q4.18-11.91,9.74-19.32t9.58-8.86h.33c.42,0,.64.3.64.88s-1,4-3,10.15-3,11-3,14.58q0,9.5,10.95,9.5,8.26,0,18.17-6.6a18.26,18.26,0,0,0,1.4,1.52,19,19,0,0,0,13.77,5.56q10.14,0,14.33-10.79a16,16,0,0,0,7.17,7.65,20.59,20.59,0,0,0,10.07,2.82q14.32,0,25.44-14.5a7,7,0,0,0,1.45-4.34A5,5,0,0,0,446.38,158.46Zm-24.8-54.68q3.71-13.29,10.14-13.28c1.83,0,2.74,1.12,2.74,3.38q0,10.78-19.32,44.61Q417.87,117.07,421.58,103.78Zm-233.2,41.8q4.5-5.16,8.94-5.16t4.42,3.06q0,3.87-6.12,8.13a36.75,36.75,0,0,1-11.75,5.72A17.31,17.31,0,0,1,188.38,145.58Zm105,21.74a9,9,0,0,1-7.08,2.9,7.71,7.71,0,0,1-6.69-3.3c-1.56-2.21-2.33-5.34-2.33-9.43a21.07,21.07,0,0,1,4-12q4-5.87,10.63-5.87h.16l2.9.48q-4.83,6-4.83,11.84t6.44,8.29A13.52,13.52,0,0,1,293.38,167.32ZM401.61,149.6q-1.94,18.84-9.18,18.84Q385,168.44,385,158a22.36,22.36,0,0,1,4.59-13.61q4.59-6.19,13.29-7Z"/><path class="cls-5" d="M97.94,239.15c12.48.1,29.87-.9,37.54-12.56,9.8-14.89-2-28.43-14.38-36.28-11.51-7.27-23.79-11-37.07-16.57-11.42-4.79-27.37-11.2-34.51-21.42-9.8-14-8.57-32.78,3.71-44.91C65.14,95.63,81.64,90.46,98,89.05c17.59-1.52,37.66-.14,52.54,10.39,14.11,10,17.23,28.51,9.05,43.47-3.63,6.63-10.15,14.42-18.33,14.65-9.65.28-15.28-8.94-9.26-16.79,4.56-6,9-11.28,7.07-19.45-1.3-5.63-5.78-9.07-10.93-11.09-13.58-5.34-34.34-5.22-46.67,3-6.87,4.58-10.82,12-8.92,20.31,1.86,8.12,11.76,16.76,30.76,24.76,18.66,7.86,35.8,12.61,51,25,6.11,5,12.37,15.24,13.32,22.77,5.06,40.18-38.62,53.5-70.76,53.22-18.17-.15-37.6-3.68-51.62-16.09s-20.72-35.75-5.91-50.38c4.54-4.48,18.14-10.83,23.11-3.72,2.28,3.26.49,7.48-1.07,10.56-2.56,5.05-4.7,8.86-4.42,14.73C58,235.71,80.86,239,97.94,239.15Z"/><path class="cls-6" d="M134.31,131.31c0,6.08-18,21-29.5,21-8.5,0-27.5-14.92-27.5-21s12.76-11,28.5-11S134.31,125.24,134.31,131.31Z"/><path class="cls-6" d="M76.31,225.73c0-5.3,14.82-18.31,24.85-18.31,7.41,0,24.84,13,24.84,18.31s-11.12,9.58-24.84,9.58S76.31,231,76.31,225.73Z"/><circle class="cls-6" cx="101.3" cy="202.15" r="2.27"/><circle class="cls-6" cx="101.3" cy="193.07" r="2.27"/><path class="cls-2" d="M224.79,74.61a3.29,3.29,0,0,0-1.65-2,4.34,4.34,0,0,0-2.77-.23q-3.63.7-23,2.88,4.66-6.68,9.57-12.94a59.72,59.72,0,0,0,6.19-8.94,2.23,2.23,0,0,0-.31-2.41,5.86,5.86,0,0,0-2.27-1.88q-3.18-1.53-6.76,2.62l-7.06,7.84q-6.6,7.09-11.09,6l-.7-.34q-3.27-1.56-1.44-5.39a54.7,54.7,0,0,1,7.06-10.11q.58-.45,1.71-1.26a9.35,9.35,0,0,0,3.39-3.26,2.9,2.9,0,0,0,0-2.83,4.91,4.91,0,0,0-2.15-2,7,7,0,0,0-3.63-.46,6.76,6.76,0,0,0-3.6,1.27c-.91.66-1.76,1.36-2.6,2.08-3.88.61-6.3.82-7.24.62-1.12-.24-1.63-.54-1.56-.9,0-.07.62-1,1.82-2.65a13.46,13.46,0,0,0,2.27-4.8q.76-3.55-4.62-4.72-2.69-.59-8.94,4.89a64,64,0,0,0-10.13,10.94,81.17,81.17,0,0,0,4-8.08,60.15,60.15,0,0,0,2.93-7,3.27,3.27,0,0,0-.55-2.42,3.55,3.55,0,0,0-2.4-1.65q-4.1-.88-7.28,3.95a72.51,72.51,0,0,0-6.29,16.08,24.77,24.77,0,0,1-6.9,4.19,23.11,23.11,0,0,1-8.7,1.76q-4.35,0-5.89-2.86Q134,48.93,139,45t5-9.09c0-3.44-.93-6.09-2.76-7.92a10.1,10.1,0,0,0-7.49-2.75,16.32,16.32,0,0,0-7.16,1.61,4.69,4.69,0,0,0-1.64-2.18,3.3,3.3,0,0,0-2.79-.84c-.9.2-1.63,1-2.19,2.3a16.16,16.16,0,0,1-2.82,4.25,25.9,25.9,0,0,1-9.22,7.17c.69-5.27.89-8.56.6-9.84-.59-2.58-2-3.61-4.32-3.09s-4.09,2.28-5.4,5.28-1.43,6.92-.35,11.71l.39,1.72q-1.92,9-5.85,13.07a10.59,10.59,0,0,0-.85-1.73A37,37,0,0,1,88.54,45a54.85,54.85,0,0,1-1.28-11.62l0-.67A3.39,3.39,0,0,0,85,30.37,6.18,6.18,0,0,0,81.2,30a4.37,4.37,0,0,0-3.71,4.11,56,56,0,0,0,1.12,16.4c.13.59.28,1.15.43,1.71a2.52,2.52,0,0,0-1.24,1.31,24.31,24.31,0,0,1-5.19,7.24,22.92,22.92,0,0,1-7.39,4.92c-2.69,1.1-4.86,1-6.54-.42q8.46-5.23,11.56-10.73T71.4,44.29q-2-4.78-5.55-6.3a10.15,10.15,0,0,0-8,.28q-7.56,3.09-10.31,12.06t.16,16.12q2.91,7.14,8.51,8.6A18.08,18.08,0,0,0,67.9,74,26.13,26.13,0,0,0,78.2,66.5,27.71,27.71,0,0,0,82.38,60a19.77,19.77,0,0,0,2.09,2.72q4.11,4.48,8.2,3.57A6.11,6.11,0,0,0,95.21,65q7.26-5.82,10.89-18.73a28.29,28.29,0,0,0,8.13-3.54,20,20,0,0,0-.6,4.73q0,7.71,4.63,11.18a18.06,18.06,0,0,0,11.18,3.46,26.1,26.1,0,0,0,12.39-3.09c.77-.4,1.49-.82,2.18-1.26a4.69,4.69,0,0,0,3.93,4.41,6,6,0,0,0,6.3-2q4.26-6.75,7.92-11.65c2.43-3.26,3.81-5.13,4.13-5.58a9.72,9.72,0,0,0-.63,1.89q-1.17,5.38,6.53,7a19.91,19.91,0,0,0,3.54.43,41.85,41.85,0,0,0-2.4,4.3,9.72,9.72,0,0,0-.46,8.09,10.44,10.44,0,0,0,5.41,5.77c1.32.64,3.44.84,6.36.62a16.53,16.53,0,0,0,8.23-3l-7.47,7.16q-2.11.33-6.69.94a63.58,63.58,0,0,0-14.28,3.28c-.42.2-1.29.56-2.59,1.08s-2.31.94-3,1.3-1.56.82-2.57,1.39a11.87,11.87,0,0,0-4.42,5.15c-1.1,2.28-1.13,4.26-.11,5.93s3,3.22,5.91,4.61a19.88,19.88,0,0,0,8.71,2.11,19.45,19.45,0,0,0,7.63-1.4,26.61,26.61,0,0,0,6.85-4.47A68.8,68.8,0,0,0,192,82.82q21.6-1.23,27.89-2.36,3.54-.51,4.47-2.44A4.39,4.39,0,0,0,224.79,74.61ZM56,60.81a11.83,11.83,0,0,1-.18-8.61q1.52-4.43,4.32-5.58t3.6.8c.67,1.63.07,3.87-1.77,6.73A25.5,25.5,0,0,1,56,60.81Zm70.51-23.45q3.08-3.53,6.11-3.52c2,0,3,.7,3,2.09,0,1.76-1.4,3.62-4.19,5.56a25.46,25.46,0,0,1-8,3.92A11.82,11.82,0,0,1,126.52,37.36Zm44.39,53.4q-5.41,3.51-8.78,1.89l-.65-.43c-.33-.17-.37-.51-.12-1q1-2,8.34-5.28t10.15-3.43A33.74,33.74,0,0,1,170.91,90.76Z"/></g></g></svg>