<svg xmlns="http://www.w3.org/2000/svg" xmlns:xlink="http://www.w3.org/1999/xlink" viewBox="0 0 745.14 264.59"><defs><style>.cls-1{fill:none;}.cls-2{clip-path:url(#clip-path);}.cls-3{fill:#3de580;}.cls-4{fill:#453878;}</style><clipPath id="clip-path" transform="translate(0 0)"><rect class="cls-1" width="745.14" height="264.59"/></clipPath></defs><g id="Layer_2" data-name="Layer 2"><g id="Layer_1-2" data-name="Layer 1"><g id="Avado_Primary_Logo" data-name="Avado Primary Logo"><g class="cls-2"><g class="cls-2"><path class="cls-3" d="M723.7,81.76c-12.29.2-23.7.59-34.25,1.26a255.44,255.44,0,0,0-17.66-40.77C658,17.43,640.25,0,617.73,0c-32.14,0-58.4,30.21-78.05,89.78-1.29,3.93-2.56,8-3.79,12.27a14.41,14.41,0,0,0,2.39,12.65,55.27,55.27,0,0,1,10.79,33.41c0,15.54-5.85,29.7-16.47,39.85a53,53,0,0,1-9.28,7.09c-1.4.85-5.55,3.92-6.32,8.54a49.27,49.27,0,0,0-.41,5.88,20.66,20.66,0,0,0,20.59,22.1h.05a20.64,20.64,0,0,0,20.59-19.22c2.25-32.81,10.82-78.45,21.1-109.62,16-48.57,29.17-61.4,38.81-61.4,17,0,29.76,46.92,29.76,46.92-23.29,4.94-39.86,13.26-50.49,27-11.49,14.82-14.31,34-8.37,57.09,11.88,46.11,42.06,74.53,66.35,85.74,9.38,4.34,18.48,6.52,26.77,6.52a38.69,38.69,0,0,0,17.06-3.7c15.65-7.62,17.6-26.92,15.68-55.59-.86-12.76-2.69-27.49-5.28-42.73-1.8-10.63-4-21.5-6.42-32.15-.51-2.23-1-4.48-1.59-6.73,8.14-.38,16.17-.56,23.6-.66a20.62,20.62,0,0,0,20.32-21.62c-.52-11.21-10.21-19.82-21.42-19.65m-42,47.05c-6.69.9-20.56,3.88-18.1,16.16,0,0,8.52,37.13,10.07,72.68a2.1,2.1,0,0,1-3.06,2c-13.4-7.06-33.54-24.9-42-57.65-3.91-15.14-.21-19.91,1-21.47,3.52-4.54,14.45-11.93,51.67-15.66a2,2,0,0,1,2.2,2.07,2,2,0,0,1-1.81,1.9" transform="translate(0 0)"/><path class="cls-4" d="M313.34,103.1a2.83,2.83,0,0,0-2.81-3.19H288.85a2.13,2.13,0,0,0-1.94,3,11.92,11.92,0,0,0,1.54,2.57,1.85,1.85,0,0,1,0,2.17,1.7,1.7,0,0,1-2.57,0c-6.64-7.6-17.41-9.59-27.41-9.59-28.14,0-51,20.39-51,50.14s22.82,50.15,51,50.15c11.63,0,22.35-5.35,30.93-12.94a1.77,1.77,0,0,1,2.15-.21,1.7,1.7,0,0,1,.34,2.52,18.35,18.35,0,0,0-3.14,4.89,2.12,2.12,0,0,0,2,2.91h21.13a2.12,2.12,0,0,0,2.11-2.35c-2.9-27.35-6.43-43.37-.62-90.09m-54.88,68.68c-13.9,0-23.43-10.66-23.43-23.81s9.53-23.81,23.43-23.81,23.43,10.66,23.43,23.81-9.52,23.81-23.43,23.81" transform="translate(0 0)"/><path class="cls-4" d="M541.07,148c0-13.1-4.42-24.37-11.76-32.9-9.35-10.85-23.44-17.25-39.2-17.25-28.15,0-51,20.39-51,50.15s22.81,50.14,51,50.14a53.56,53.56,0,0,0,25-6c15.47-8.14,25.91-24,25.91-44.1m-51,23.81c-13.9,0-23.43-10.66-23.43-23.81s9.53-23.81,23.43-23.81,23.43,10.66,23.43,23.81-9.53,23.81-23.43,23.81" transform="translate(0 0)"/><path class="cls-4" d="M428.11,66.12H404.47a2.12,2.12,0,0,0-2.1,1.81c-1.67,11.26-2.43,22.88-2.73,28.55a9.49,9.49,0,0,0,2,6.31l.22.29a1.91,1.91,0,0,1,.06,2.32,1.84,1.84,0,0,1-2.69.27c-6.68-6-16.37-7.59-25.43-7.59-28.14,0-51,20.39-51,50.14s22.82,50.15,51,50.15c11.63,0,22.35-5.35,30.93-12.94a1.77,1.77,0,0,1,2.15-.21,1.7,1.7,0,0,1,.34,2.52,18.35,18.35,0,0,0-3.14,4.89,2.12,2.12,0,0,0,2,2.91h21.18a2.11,2.11,0,0,0,2.12-2.29c-2.49-30.39-6-71.65.88-124.73a2.12,2.12,0,0,0-2.1-2.4M373.77,171.78c-13.9,0-23.43-10.66-23.43-23.81s9.53-23.81,23.43-23.81S397.2,134.82,397.2,148s-9.52,23.81-23.43,23.81" transform="translate(0 0)"/><path class="cls-4" d="M71.26,73.5a3,3,0,0,0-2.68-1.73H45.06a2.94,2.94,0,0,0-2.68,1.73C19,125.83,3.57,180,.08,192.74a2.22,2.22,0,0,0,2.14,2.8h24A2.83,2.83,0,0,0,29,193.4c.74-3,2.28-9.05,4.61-17.39a2.33,2.33,0,0,1,2.25-1.71h42A2.27,2.27,0,0,1,80,176c2.34,8.36,3.88,14.42,4.63,17.44a2.82,2.82,0,0,0,2.75,2.14h24a2.22,2.22,0,0,0,2.14-2.8C110.07,180,94.68,125.83,71.26,73.5M42.91,145c3.38-10.63,7.35-23.08,11.92-35.48a2.2,2.2,0,0,1,1.48-1.43,2.07,2.07,0,0,1,2.45,1.29c4.57,12.4,8.54,24.85,11.93,35.5A2.36,2.36,0,0,1,68.43,148H45.07A2.27,2.27,0,0,1,42.91,145" transform="translate(0 0)"/><path class="cls-4" d="M202,99.92l-22.94.15a2.83,2.83,0,0,0-2.69,2,531.55,531.55,0,0,1-19.61,55.85,2.16,2.16,0,0,1-4,0,531.55,531.55,0,0,1-19.61-55.85,2.83,2.83,0,0,0-2.7-2l-23.86-.16a2.12,2.12,0,0,0-2.07,2.68c3.17,11.78,16.83,59.59,37.68,91.67a2.85,2.85,0,0,0,2.38,1.28H165a2.83,2.83,0,0,0,2.37-1.28c20.36-31.32,33.86-77.62,37.44-90.77A2.83,2.83,0,0,0,202,99.92" transform="translate(0 0)"/></g></g></g></g></g></svg>