<svg xmlns="http://www.w3.org/2000/svg" viewBox="0 0 622.8 115.15"><defs><style>.cls-1{fill:#6154c7;}</style></defs><g id="Layer_2" data-name="Layer 2"><g id="Layer_1-2" data-name="Layer 1"><path class="cls-1" d="M171.76,6.67q-4.69,0-9.44,4.53a37.68,37.68,0,0,0-8,11.54,89.84,89.84,0,0,0-8.37,28.73l-3.11,1.75a2.83,2.83,0,0,0-1.53,2.66,5.09,5.09,0,0,0,1,3.11c.64.87,1.26,1.3,1.87,1.3a6.34,6.34,0,0,0,1.35-.11c0,.12,0,.24,0,.37a5,5,0,0,0-1.15.87,21.66,21.66,0,0,1-5,5.15q-2.78,2-4.47,2c-1.13,0-1.69-.68-1.69-2a3.34,3.34,0,0,1,.11-1l3.17-18.21a4.16,4.16,0,0,0,.11-1.13q0-3.16-3.28-3.17h-.68l-3,.34.11-.9q0-2.49-4.64-2.49-7.92,0-15.33,7.24a23.85,23.85,0,0,0-7.29,15.37l-.34.24c-6.18,4.37-9.77,6.56-10.74,6.56s-1.48-.45-1.48-1.36a13.73,13.73,0,0,1,1.59-4.3q5.43-11.19,6.5-14.76A36.74,36.74,0,0,0,99,45a3.71,3.71,0,0,0-2-3.34,11,11,0,0,0-5.6-1.18q-3.63,0-10.52,5.14a37.91,37.91,0,0,0-11.2,13.75l3.17-13.47Q87,35.18,93.09,26.75t7.24-16.12v-1a9.91,9.91,0,0,0-2.43-7A8.66,8.66,0,0,0,91.17,0q-7,0-13,6.84l0,0c-4.59-.19-9.74-.48-15.48-.87Q46.27,4.86,40.16,4.86a98.4,98.4,0,0,0-10.3.46Q18.77,7.12,14.14,9.5,4.63,14.38.23,26.7A4,4,0,0,0,0,28.17q0,2.94,3.45,2.94t4.47-1.93q1.24-1.92,2.37-3.33a23.32,23.32,0,0,1,3.91-3.51,25.77,25.77,0,0,1,6.27-3.45q8.59-3.39,22-3.39c1.58,0,3.35,0,5.31.11q-12,33.82-16.62,52.82-2.26,8.83-2.27,12.33,0,7,6.57,7,6,0,7.35-9,3.16-20.6,13.57-62.44c5.69.47,10.74.8,15.21,1a61.41,61.41,0,0,0-2.77,6.91,164.92,164.92,0,0,0-8.59,40.38c-.23,2.71-.34,4.49-.34,5.32q0,8.13,4.52,8.14c1.59,0,2.64-.38,3.17-1.13A11.86,11.86,0,0,0,69,73.19q1.36-5,7.58-12.79t8.6-7.8c.37,0,.56.28.56.85s-1,3.28-3,8.14-3,8.47-3,10.8q0,6.45,7.35,6.45a26.08,26.08,0,0,0,10-2.26,34.29,34.29,0,0,0,7-3.82,13.2,13.2,0,0,0,1.4,2.07q3.17,3.78,9,3.79t9.78-5.55l1.47-2a7.23,7.23,0,0,0,2.43,4.86,8.75,8.75,0,0,0,6.17,2,14.11,14.11,0,0,0,8.2-3.06,34.83,34.83,0,0,0,4.83-4.2,19.43,19.43,0,0,0,.94,2.17,8.3,8.3,0,0,0,7.86,5h.79q9.95-1.12,17.87-9.72a4.69,4.69,0,0,0,1.58-3.34,3.74,3.74,0,0,0-1.24-2.89,4,4,0,0,0-2.71-1.13,3.37,3.37,0,0,0-2.49,1q-6.1,6.34-11.09,7.35h-.45q-3.39,0-3.39-9.84c0-1.35,0-2.79.11-4.3q12.43-6,18.89-7.35c1.58-.37,2.37-1.17,2.37-2.37a3.89,3.89,0,0,0-1.07-2.89A3.27,3.27,0,0,0,173,41.29q-2,0-9.39,2.6a56.4,56.4,0,0,0,11.82-12.95,31.48,31.48,0,0,0,5.38-15.22v-1A8.11,8.11,0,0,0,178.61,9C177.17,7.45,174.89,6.67,171.76,6.67Zm-86.3,17.2A93.32,93.32,0,0,1,73.87,38a119.87,119.87,0,0,1,3.84-13.12,54.19,54.19,0,0,1,3.13-7.36q5.72,0,8.24-.26A40.59,40.59,0,0,1,85.46,23.87Zm39.76,35.18c-.76,3.47-1.94,6-3.57,7.63a7.23,7.23,0,0,1-5.14,2.43q-4.53,0-4.53-5.31t4.58-11a15,15,0,0,1,11.26-6Zm42.92-29.47A89.38,89.38,0,0,1,157,41.85a54.58,54.58,0,0,1,5.43-16.74q4-7.58,8.26-7.58a.8.8,0,0,1,.9.91A18.93,18.93,0,0,1,168.14,29.58Z"/><path class="cls-1" d="M209.37,5.43q-4.19,0-4.86,3.39-.22,1.37-2.21,11.71t-2,11.26c0,2,1.1,2.94,3.28,2.94,1.74,0,3-1.1,3.85-3.28q7.8-20.14,7.8-22.29Q215.25,5.43,209.37,5.43Z"/><path class="cls-1" d="M262.37,59.84a2.64,2.64,0,0,0-2.21,1q-5.31,6.78-10,8.71a6.67,6.67,0,0,0,1-3.4q0-2.94-2.71-6.5a80,80,0,0,0-5.43-6.45q-2.72-2.88-2.71-4.35a5.3,5.3,0,0,1,.79-1.87,6.69,6.69,0,0,0,.79-3.28,3.79,3.79,0,0,0-1.41-3,5,5,0,0,0-3.34-1.19,6.68,6.68,0,0,0-5.88,3.28q.33,0-5.83,11.65T218,68.1a19.34,19.34,0,0,0,8.26,7.74,26.18,26.18,0,0,0,12.32,2.89h.34a43.47,43.47,0,0,0,17.2-3.06q7.13-3,9.84-8.37a5.69,5.69,0,0,0,.57-2.6,5.23,5.23,0,0,0-1.36-3.16A3.7,3.7,0,0,0,262.37,59.84Zm-26,11.31h-.8c-.83,0-2.52-.72-5.09-2.15.08-.15.25-.58.51-1.3s.93-2.13,2-4.24l3.85-7.92q4.63,6.78,4.64,11.2T236.41,71.15Z"/><path class="cls-1" d="M383.51,6.67q-4.69,0-9.45,4.53a38,38,0,0,0-8,11.54,90.35,90.35,0,0,0-8.37,28.73c-1.05.6-2.09,1.19-3.11,1.75A2.83,2.83,0,0,0,353,55.88a5.6,5.6,0,0,0,.05.6,30.59,30.59,0,0,1-3,1.21,20.51,20.51,0,0,0,.34-3.62,14,14,0,0,0-3.33-9.56,11.42,11.42,0,0,0-9-3.79,18,18,0,0,0-14.36,6.85A24.35,24.35,0,0,0,318,63.8c0,.23,0,.44,0,.67-3.52,2.86-6.1,4.3-7.72,4.3q-3.51,0,1.81-13.23,2.82-7.24,2.83-10.29,0-5-5.21-5l-1.13.11q-4.86.45-10.41,5.26a53,53,0,0,0-10.63,13.63,73,73,0,0,1,3.06-11,18.05,18.05,0,0,0,1.47-4.8,2.57,2.57,0,0,0-1.19-2,5,5,0,0,0-3.11-.9c-2.34,0-4.11,1.5-5.32,4.52a64.06,64.06,0,0,0-5,23.75q0,9.51,5,9.51a4.51,4.51,0,0,0,3.22-1,10.22,10.22,0,0,0,2.1-3.85,50.58,50.58,0,0,1,6.84-13.57q3.9-5.21,6.73-6.22h.23c.3,0,.45.21.45.62a66.41,66.41,0,0,1-2.09,7.13,35.69,35.69,0,0,0-2.1,10.23q0,6.68,7.7,6.68,6.62,0,14.73-6a13.69,13.69,0,0,0,1.84,2.29,14.22,14.22,0,0,0,10.57,4.19q11.2,0,16.18-13.12a55.68,55.68,0,0,0,8.47-3.51A27.86,27.86,0,0,0,360,72.85a8.32,8.32,0,0,0,7.86,5h.79q10-1.12,17.88-9.72a4.73,4.73,0,0,0,1.58-3.34,3.77,3.77,0,0,0-1.24-2.89,4,4,0,0,0-2.72-1.13,3.39,3.39,0,0,0-2.49,1q-6.11,6.34-11.08,7.35h-.46q-3.39,0-3.39-9.84c0-1.35,0-2.79.11-4.3q12.45-6,18.89-7.35c1.59-.37,2.38-1.17,2.38-2.37A3.93,3.93,0,0,0,387,42.36a3.27,3.27,0,0,0-2.32-1.07q-2,0-9.39,2.6a56.85,56.85,0,0,0,11.82-12.95,31.56,31.56,0,0,0,5.37-15.22v-1A8.11,8.11,0,0,0,390.35,9C388.92,7.45,386.64,6.67,383.51,6.67Zm-45,61.88a6.32,6.32,0,0,1-5,2,5.39,5.39,0,0,1-4.69-2.31,11.34,11.34,0,0,1-1.65-6.62,14.8,14.8,0,0,1,2.83-8.43,8.69,8.69,0,0,1,7.47-4.13h.11l2,.34c-2.26,2.79-3.4,5.56-3.4,8.32s1.51,4.69,4.53,5.82A9.53,9.53,0,0,1,338.55,68.55Zm41.34-39a89.38,89.38,0,0,1-11.14,12.27,54.58,54.58,0,0,1,5.43-16.74q4-7.58,8.25-7.58a.8.8,0,0,1,.91.91A18.93,18.93,0,0,1,379.89,29.58Z"/><path class="cls-1" d="M461.84,34.84A7.52,7.52,0,0,0,467,33a6.31,6.31,0,0,0,2-5q0-6.56-6.9-6.56a8.08,8.08,0,0,0-5.43,1.93,6.32,6.32,0,0,0-2.26,5.08Q454.49,34.85,461.84,34.84Z"/><path class="cls-1" d="M575.35,6.67q-4.7,0-9.45,4.53a37.85,37.85,0,0,0-8,11.54,90.1,90.1,0,0,0-8.37,28.73c-1.06.6-2.09,1.19-3.11,1.75a2.83,2.83,0,0,0-1.53,2.66,5.09,5.09,0,0,0,1,3.11c.64.87,1.26,1.3,1.87,1.3a6.52,6.52,0,0,0,1.36-.11c0,.27,0,.54,0,.81a30.3,30.3,0,0,0-2.76,1.79q-9.27,6.56-10.74,6.56c-1,0-1.47-.45-1.47-1.36a13.6,13.6,0,0,1,1.58-4.3q5.43-11.19,6.5-14.76a36.74,36.74,0,0,0,1.08-3.9,3.71,3.71,0,0,0-2-3.34,11,11,0,0,0-5.6-1.18q-3.62,0-10.52,5.14A38,38,0,0,0,514,59.39l3.17-13.47q14.13-10.74,20.25-19.17t7.24-16.12v-1a9.91,9.91,0,0,0-2.44-7A8.66,8.66,0,0,0,535.47,0q-7,0-13,6.84a50.42,50.42,0,0,0-9.44,17.37,165,165,0,0,0-8.6,40.38c-.06.75-.12,1.43-.16,2-.72.36-1.51.79-2.38,1.3a56.19,56.19,0,0,0-8.2,5.71l6.1-25.45a5.57,5.57,0,0,0,.12-1.47,3.44,3.44,0,0,0-1.36-2.38,4.35,4.35,0,0,0-3-1.24,10.78,10.78,0,0,0-3.34.56,2.51,2.51,0,0,0-1-1.81,3.63,3.63,0,0,0-2.49-.9h-.57q-9.62,0-17.13,7.75a25.44,25.44,0,0,0-7.5,17.17c-2.92,2.77-5.41,4.15-7.49,4.15q-3.51,0-3.51-5.66,0-7.8,5.43-18.21a5.18,5.18,0,0,0,.57-2.37,2.7,2.7,0,0,0-1.42-2.21,6.39,6.39,0,0,0-3.67-1q-3.74,0-6.05,3.9a36,36,0,0,0-3.24,7.43,21.62,21.62,0,0,1-5.47,1.56c-1.17,0-1.76-.18-1.76-.56,0-.08.42-1.09,1.25-3.06a13.79,13.79,0,0,0,1.24-5.31q0-3.74-5.65-3.74-2.84,0-7.92,6.85a65.25,65.25,0,0,0-7.81,13.18,78.63,78.63,0,0,0,2.32-9,63.58,63.58,0,0,0,1.42-7.69,3.39,3.39,0,0,0-1.08-2.32A3.67,3.67,0,0,0,418,40.72q-4.31,0-6.45,5.54a76.41,76.41,0,0,0-2.94,21.5V70q0,8,5.54,8A6.18,6.18,0,0,0,420,74.66q2.82-7.69,5.43-13.41t2.94-6.5a10.51,10.51,0,0,0-.23,2q0,5.67,8.09,5.66a21.61,21.61,0,0,0,5.89-.84c-.11,1.1-.18,2.18-.18,3.22q0,6.33,3.17,10a10.24,10.24,0,0,0,8.14,3.67,20.93,20.93,0,0,0,9.9-2.6,27,27,0,0,0,2.61-1.58,11.22,11.22,0,0,0,.89,1.07q3.12,3.23,9.11,3.23a12,12,0,0,0,9.73-4.53l-.79,4.53q-26.13,15.5-26.13,27.48a8.68,8.68,0,0,0,2.54,6.68q2.55,2.37,7.41,2.37a16,16,0,0,0,8.88-2.6,21.29,21.29,0,0,0,6.84-7.58q4.63-8.37,7.92-22.28a117,117,0,0,1,11.26-6.17l1.7-.83a3.72,3.72,0,0,0,3.56,2.36c1.58,0,2.63-.38,3.16-1.13a11.63,11.63,0,0,0,1.47-3.73q1.37-5,7.58-12.79t8.6-7.8c.38,0,.56.28.56.85s-1,3.28-3,8.14-3,8.47-3,10.8q0,6.45,7.35,6.45a26.09,26.09,0,0,0,10-2.26,30.81,30.81,0,0,0,8.82-5.32c.24-.21.46-.43.68-.64a18.71,18.71,0,0,0,1,2.23,8.3,8.3,0,0,0,7.86,5h.79q10-1.12,17.87-9.72a4.71,4.71,0,0,0,1.59-3.34,3.75,3.75,0,0,0-1.25-2.89A4,4,0,0,0,576,60.74a3.39,3.39,0,0,0-2.49,1q-6.11,6.34-11.09,7.35h-.45q-3.39,0-3.39-9.84c0-1.35,0-2.79.11-4.3q12.45-6,18.89-7.35c1.59-.37,2.38-1.17,2.38-2.37a3.9,3.9,0,0,0-1.08-2.89,3.27,3.27,0,0,0-2.32-1.07q-2,0-9.38,2.6A56.85,56.85,0,0,0,579,30.94a31.56,31.56,0,0,0,5.37-15.22v-1A8.11,8.11,0,0,0,582.19,9C580.76,7.45,578.47,6.67,575.35,6.67ZM522,24.89q4.86-13.8,10.18-13.81c1.43,0,2.15.76,2.15,2.27q0,3.51-4.58,10.52A92.72,92.72,0,0,1,518.17,38,119.87,119.87,0,0,1,522,24.89ZM481.58,94.4a33.16,33.16,0,0,1-5,8.42c-2.19,2.72-4.45,4.07-6.79,4.07-1.43,0-2.14-.79-2.14-2.37a8.88,8.88,0,0,1,1.86-5A25.34,25.34,0,0,1,473.38,95q3.72-3.06,10.4-8A34.42,34.42,0,0,1,481.58,94.4Zm5.93-34.9q-3,10.41-9.84,10.41-3.29,0-3.28-4.53t4.81-10q4.8-5.49,10.92-5.94Zm84.22-29.92a89.58,89.58,0,0,1-11.15,12.27A54.58,54.58,0,0,1,566,25.11q4-7.58,8.26-7.58a.81.81,0,0,1,.91.91A18.93,18.93,0,0,1,571.73,29.58Z"/><path class="cls-1" d="M598.48,61.87a8.13,8.13,0,0,0-6.17,2.32,8.74,8.74,0,0,0-2.2,6.28q0,7.57,7.69,7.58A8.08,8.08,0,0,0,604,75.62a9,9,0,0,0,2.26-6.39Q606.28,61.88,598.48,61.87Z"/><path class="cls-1" d="M621.27,5.49A6.06,6.06,0,0,0,617,4.07a6.36,6.36,0,0,0-4.52,1.64A7.94,7.94,0,0,0,610.13,10l-9.5,38.46a3.8,3.8,0,0,0-.12,1.13,2.16,2.16,0,0,0,.63,1.48,2.48,2.48,0,0,0,1.92.67c.86,0,1.6-.64,2.2-1.92l15.16-32.35C622,14,622.8,11.31,622.8,9.28A4.9,4.9,0,0,0,621.27,5.49Z"/></g></g></svg>