<svg xmlns="http://www.w3.org/2000/svg" viewBox="0 0 382.32 102.37"><defs><style>.cls-1{fill:#6154c7;}</style></defs><g id="Layer_2" data-name="Layer 2"><g id="Layer_1-2" data-name="Layer 1"><path class="cls-1" d="M91,12.78a8.45,8.45,0,0,1,1-.62c.56-.34,1-.58,1.18-.74a6.27,6.27,0,0,0,.91-.79,4.4,4.4,0,0,0,1-3.22,3.84,3.84,0,0,0-1.3-3.22,7.69,7.69,0,0,0-4.36-1.14q-10.19,0-26.64-1.13T40.16.79a98.73,98.73,0,0,0-10.3.45Q18.77,3.06,14.14,5.43,4.63,10.29.23,22.62A4,4,0,0,0,0,24.09C0,26.06,1.15,27,3.45,27s3.79-.64,4.47-1.92c.83-1.28,1.62-2.39,2.37-3.34a22.92,22.92,0,0,1,3.91-3.5,25.44,25.44,0,0,1,6.27-3.45q8.59-3.39,22-3.4,2.37,0,5.31.12-12,33.83-16.62,52.82c-1.51,5.89-2.27,10-2.27,12.33q0,7,6.57,7,6,0,7.35-9,3.16-20.59,13.57-62.44,15,1.24,24.38,1.24T91,12.78Z"/><path class="cls-1" d="M74.66,19.34a6.36,6.36,0,0,0-2.27,5.09q0,6.34,7.36,6.34A7.52,7.52,0,0,0,85,29a6.32,6.32,0,0,0,2-5q0-6.56-6.9-6.56A8.08,8.08,0,0,0,74.66,19.34Z"/><path class="cls-1" d="M171.71,58.25a2.59,2.59,0,0,0-1.92.8A25.16,25.16,0,0,1,162,63.91a23.6,23.6,0,0,1-8.94,1.81q-4.47,0-6-2.94,10.06-1.7,15.16-5.71t5.09-9.34c0-3.54-1-6.25-2.83-8.14a10.42,10.42,0,0,0-7.69-2.83q-8.37,0-14.48,7.47t-6.11,15.38a20.21,20.21,0,0,0,.5,4.58q-3.49,3-6,3-2.94,0-2.94-4.52A29.83,29.83,0,0,1,129,54.24c.83-2.83,1.62-5.52,2.38-8.09a43.47,43.47,0,0,0,1.92-7,2.6,2.6,0,0,0-1.3-1.92,5.69,5.69,0,0,0-3.45-1q-9.16,0-18.33,20.47c.3-1.43.76-3.46,1.36-6.1q1.92-8.37,1.92-10.41a3.54,3.54,0,0,0-1.58-3.11,5.76,5.76,0,0,0-3.28-1.08q-3.39,0-8,5.26T91.51,57.8q0-6.67,3.28-17.42a3.75,3.75,0,0,0,.11-1.19,2.23,2.23,0,0,0-1-1.75,3.88,3.88,0,0,0-2.48-.79h-.23a4.51,4.51,0,0,0-4.3,3.05,71.06,71.06,0,0,0-4.25,21Q77.49,65.94,74,66t-3.51-5.66q0-7.8,5.43-18.21a5.22,5.22,0,0,0,.57-2.38,2.72,2.72,0,0,0-1.42-2.2,6.41,6.41,0,0,0-3.67-1q-3.73,0-6.06,3.9a39.68,39.68,0,0,0-3.9,9.67,40.64,40.64,0,0,0-1.58,10.63q0,6.34,3.17,10a10.22,10.22,0,0,0,8.14,3.68,21,21,0,0,0,9.9-2.6,25.88,25.88,0,0,0,2.55-1.55c.88,2.46,2.5,3.7,4.86,3.7a5,5,0,0,0,3.28-1.25,12.06,12.06,0,0,0,2.77-4c.86-1.81,1.75-3.67,2.65-5.6l2-4.18c.42-.87,1-2,1.76-3.34a80.4,80.4,0,0,1,5.2-8Q102.26,59.5,101.92,66l-.12,2q0,5.77,5.43,5.77,2.49,0,4.19-3,5.88-13.12,8.25-17.2c1.59-2.71,3-4.9,4.19-6.56Q119,57.7,119,65.83a8.86,8.86,0,0,0,2,6q2,2.37,6.73,2.37A19.75,19.75,0,0,0,137.83,71c.6-.36,1.17-.74,1.74-1.14a10.17,10.17,0,0,0,1.37,1.25,18.56,18.56,0,0,0,11.48,3.57,26.89,26.89,0,0,0,12.73-3.17A24.34,24.34,0,0,0,174,64.25a4.45,4.45,0,0,0,1-2.66,3.13,3.13,0,0,0-1.08-2.32A3.19,3.19,0,0,0,171.71,58.25Zm-22.29-9c2.11-2.42,4.21-3.62,6.28-3.62s3.11.71,3.11,2.14q0,2.72-4.3,5.72a25.81,25.81,0,0,1-8.25,4A12.17,12.17,0,0,1,149.42,49.21Z"/><path class="cls-1" d="M182.57,1.36q-4.19,0-4.87,3.39-.22,1.37-2.2,11.71t-2,11.25q0,2.94,3.28,2.94,2.59,0,3.84-3.28,7.81-20.13,7.81-22.28Q188.45,1.36,182.57,1.36Z"/><path class="cls-1" d="M235.56,55.77a2.64,2.64,0,0,0-2.2,1q-5.33,6.8-10,8.71a6.53,6.53,0,0,0,1-3.39c0-2-.91-4.13-2.71-6.5a84.31,84.31,0,0,0-5.43-6.45c-1.82-1.92-2.72-3.38-2.72-4.36a5.28,5.28,0,0,1,.79-1.86,6.58,6.58,0,0,0,.79-3.28,3.81,3.81,0,0,0-1.41-3.06,5,5,0,0,0-3.34-1.18,6.68,6.68,0,0,0-5.88,3.28q.35,0-5.82,11.65T191.16,64a19.3,19.3,0,0,0,8.26,7.75,26.34,26.34,0,0,0,12.33,2.89h.34a43.46,43.46,0,0,0,17.19-3.06q7.13-3,9.84-8.37a5.69,5.69,0,0,0,.57-2.6,5.19,5.19,0,0,0-1.36-3.17A3.69,3.69,0,0,0,235.56,55.77Zm-26,11.31h-.79q-1.25,0-5.09-2.15c.07-.15.24-.59.51-1.3s.92-2.13,2-4.24l3.84-7.92q4.63,6.78,4.64,11.2T209.6,67.08Z"/><path class="cls-1" d="M351.67,44.34A2.3,2.3,0,0,0,353,42.25a4.24,4.24,0,0,0-.68-2.72c-.53-.79-1-1.22-1.47-1.3s-.72-.18-.79-.34a.23.23,0,0,0-.34-.11c-2,2-3.58,3.55-4.87,4.75a65.94,65.94,0,0,1-5.71,4.64,20.36,20.36,0,0,1-6.39,3.51c.07-1,.11-1.93.11-2.83a12.81,12.81,0,0,0-2.49-8.15c-1.65-2.11-4.24-3.16-7.74-3.16a23.1,23.1,0,0,0-9.39,1.81,16.62,16.62,0,0,0-7.13,6.33A49.38,49.38,0,0,0,302,52c-.75,1.74-1.58,3.93-2.5,6.54a2.68,2.68,0,0,0-1-.27,2.8,2.8,0,0,0-2.09,1.25q-4.75,5.43-7.92,5.43c-1.28,0-1.92-.72-1.92-2.15,0-.23.41-2.39,1.24-6.5a78.19,78.19,0,0,1,3-11,28.63,28.63,0,0,0,1.75-5.89q0-2.94-5-2.94a5.1,5.1,0,0,0-3.45,1.13A9.83,9.83,0,0,0,281.77,42l-4,12.55a19.15,19.15,0,0,1-4.81,8q-3.22,3.1-6.05,3.11t-2.77-4.7a36.18,36.18,0,0,1,2-10.74,74.51,74.51,0,0,1,3.06-8.26,12.46,12.46,0,0,0,1.07-2.55c0-.82-.53-1.5-1.58-2a9.11,9.11,0,0,0-4.07-.79,4.8,4.8,0,0,0-4.08,2.26q-2.82,3.51-4.92,10.58A45.15,45.15,0,0,0,253.6,62a14.47,14.47,0,0,0,2.66,8.88A9.07,9.07,0,0,0,264,74.43a13.23,13.23,0,0,0,8.71-3,20.49,20.49,0,0,0,5.65-7.52,15.16,15.16,0,0,0-.22,3.17,9.09,9.09,0,0,0,1.58,4.8c1.06,1.7,2.9,2.55,5.54,2.55a16.94,16.94,0,0,0,10.23-3.16q-1,4.24-2.54,11.25-3.49,15.89-3.5,17.87c0,1.32.22,2,.68,2l1.24-.11a7.46,7.46,0,0,0,4.19-1.59,8.18,8.18,0,0,0,2.94-3.16h.11q1.58,0,4.75-15.39.79-3.39,1.41-6.33c.42-2,.66-3.09.74-3.4a8.93,8.93,0,0,0,5.66,2.49,17.15,17.15,0,0,0,11.59-4.63,29.39,29.39,0,0,0,8-11.66,46.82,46.82,0,0,0,11.66-6.27A49.74,49.74,0,0,0,351.67,44.34Zm-32.35,6a5.67,5.67,0,0,0-1.24,4.12c0,1.93,1.05,3.34,3.16,4.25q-2.94,5.2-7,7a6.44,6.44,0,0,1-7.13-1.24L308.46,60q3.39-11.19,6.9-13.57a7.4,7.4,0,0,1,4-1.13,3.82,3.82,0,0,1,3.45,2.48A24,24,0,0,0,319.32,50.34Z"/><path class="cls-1" d="M358,57.8a8.11,8.11,0,0,0-6.16,2.32,8.75,8.75,0,0,0-2.21,6.28q0,7.57,7.7,7.58a8.1,8.1,0,0,0,6.22-2.43,9.08,9.08,0,0,0,2.26-6.4Q365.81,57.8,358,57.8Z"/><path class="cls-1" d="M380.8,1.41A6.11,6.11,0,0,0,376.5,0,6.38,6.38,0,0,0,372,1.64a7.89,7.89,0,0,0-2.31,4.24l-9.51,38.46a4.26,4.26,0,0,0-.11,1.13,2.15,2.15,0,0,0,.62,1.47,2.48,2.48,0,0,0,1.93.68c.86,0,1.6-.64,2.2-1.92L380,13.35c1.58-3.4,2.37-6.11,2.37-8.15A5,5,0,0,0,380.8,1.41Z"/></g></g></svg>