<svg xmlns="http://www.w3.org/2000/svg" viewBox="0 0 560.25 113"><defs><style>.cls-1{fill:#6154c7;}</style></defs><g id="Layer_2" data-name="Layer 2"><g id="Layer_1-2" data-name="Layer 1"><path class="cls-1" d="M143.43,61.08a5.18,5.18,0,0,0-4.35,1.74,6.06,6.06,0,0,0,.39-2.19,5.19,5.19,0,0,0-1.36-3.17,3.69,3.69,0,0,0-2.77-1.69,2.64,2.64,0,0,0-2.2,1q-5.32,6.8-10,8.71a6.53,6.53,0,0,0,1-3.39q0-2.94-2.72-6.5a78,78,0,0,0-5.43-6.45c-1.8-1.92-2.71-3.38-2.71-4.36a5.28,5.28,0,0,1,.79-1.86,6.58,6.58,0,0,0,.79-3.28,3.81,3.81,0,0,0-1.41-3.06,5,5,0,0,0-3.34-1.18,6.68,6.68,0,0,0-5.88,3.28q.34,0-5.83,11.65-3.22,6.1-5.13,9.56a25.55,25.55,0,0,1-6.74,4,23.6,23.6,0,0,1-8.94,1.81c-3,0-5-1-6.05-2.94q10.07-1.7,15.16-5.71t5.09-9.34c0-3.54-.95-6.25-2.83-8.14a10.42,10.42,0,0,0-7.69-2.83q-7.85,0-13.71,6.56-7.38,5.1-16.72,12.79L62,13.23a20.13,20.13,0,0,0,.56-4.29q0-3.85-5.43-3.85c-2.56,0-4.3,1.85-5.2,5.54L41.85,50.22a44.17,44.17,0,0,1-10.23,9.45q-5.49,3.55-10,3.56a8.34,8.34,0,0,1-7.07-3.51Q12,56.23,12,48.87,12,34.05,23,7.35a2.52,2.52,0,0,0,.23-1.13c0-1.58-1.42-2.37-4.24-2.37S13.84,5.28,12.1,8.14Q0,29.41,0,46.83q0,11.43,5.2,18.1T19.57,71.6q9.16,0,19.79-9.16l-1.24,4.75a165.47,165.47,0,0,0-19.68,21q-7.59,9.9-7.58,16.8a8,8,0,0,0,2.2,5.71A8.11,8.11,0,0,0,19.23,113a15.38,15.38,0,0,0,7.41-1.86,21.28,21.28,0,0,0,6.22-5.21,40,40,0,0,0,5.37-9.1q4.41-9.84,9.39-28.4,6.81-6,13.28-11.22a21.49,21.49,0,0,0-.16,2.4q0,7.92,4.75,11.48A18.58,18.58,0,0,0,77,74.66,26.89,26.89,0,0,0,89.7,71.49a31.72,31.72,0,0,0,4.74-3,21.41,21.41,0,0,0,4.76,3.31,26.34,26.34,0,0,0,12.33,2.89h.34a43.46,43.46,0,0,0,17.19-3.06q6.49-2.77,9.31-7.45a6.91,6.91,0,0,0-.37,1.68,51,51,0,0,1-1.53,8.37,24.46,24.46,0,0,1-2.32,5.21,11.58,11.58,0,0,0-1.47,2.94,2.37,2.37,0,0,0,1.08,1.86,3.2,3.2,0,0,0,1.92.85,2.68,2.68,0,0,0,1.41-.34A33.68,33.68,0,0,0,145.63,77a15.37,15.37,0,0,0,3.45-9.56Q149.08,61.08,143.43,61.08ZM24.09,101.58c-1.13,1.58-2,2.37-2.6,2.37-.9,0-1.36-.9-1.36-2.71q0-5.1,13.13-18.89Q28.39,95.7,24.09,101.58ZM74,49.21c2.11-2.42,4.2-3.62,6.27-3.62s3.12.71,3.12,2.14c0,1.81-1.44,3.72-4.3,5.72a26,26,0,0,1-8.26,4A12.13,12.13,0,0,1,74,49.21Zm35.4,17.87h-.79q-1.25,0-5.09-2.15c.07-.15.24-.59.51-1.3s.92-2.13,2-4.24l3.84-7.92q4.64,6.78,4.64,11.2C114.47,65.61,112.78,67.08,109.38,67.08Z"/><path class="cls-1" d="M312,59.67a4.72,4.72,0,0,0-2.71-1.42,2.82,2.82,0,0,0-2.1,1.25q-4.74,5.43-7.91,5.43c-1.29,0-1.93-.72-1.93-2.15,0-.23.42-2.39,1.25-6.5a78.19,78.19,0,0,1,3-11,29.36,29.36,0,0,0,1.75-5.89q0-2.94-5-2.94a5.1,5.1,0,0,0-3.45,1.13A9.83,9.83,0,0,0,292.62,42l-4,12.55a19,19,0,0,1-4.8,8q-3.23,3.1-6.06,3.11T275,60.91a36.55,36.55,0,0,1,2-10.74,77.28,77.28,0,0,1,3.05-8.26,12.18,12.18,0,0,0,1.08-2.55c0-.82-.53-1.5-1.58-2a9.12,9.12,0,0,0-4.08-.79,4.78,4.78,0,0,0-4.07,2.26,27.79,27.79,0,0,0-4.23,8.41,27.14,27.14,0,0,1-10.47,6.41,21.6,21.6,0,0,0,.34-3.62,14,14,0,0,0-3.34-9.56,11.37,11.37,0,0,0-9-3.79,18,18,0,0,0-14.37,6.84,24.38,24.38,0,0,0-5.77,16.23,19.36,19.36,0,0,0,.25,3.1q-4.53,2.9-11.22,7.09,1.37-8.26,3.11-16.24a61.38,61.38,0,0,0,1.75-11,2.29,2.29,0,0,0-1.35-2.09,6.1,6.1,0,0,0-2.94-.73q-3.63,0-5.09,5.43l-3.06,10.4q-2.94,9.51-7.58,10.52h-.79q-3.74,0-3.73-4.35a56.36,56.36,0,0,1,2-12.5q.34-.68,1-1.92a9.73,9.73,0,0,0,1.7-4.53,3,3,0,0,0-1.3-2.6,5,5,0,0,0-2.89-.91A7.13,7.13,0,0,0,191,40.55a7,7,0,0,0-2.77,2.77,42.3,42.3,0,0,0-5.09,20A10,10,0,0,0,186.3,71,10.74,10.74,0,0,0,193.88,74c1.5,0,3.56-.76,6.16-2.27a16.91,16.91,0,0,0,6.28-6.44l-3.74,10q-1.8,1.25-5.76,3.85a64.76,64.76,0,0,0-11.77,9.39c-.3.37-.94,1.09-1.92,2.15s-1.72,1.9-2.21,2.54-1.07,1.45-1.75,2.43a12.2,12.2,0,0,0-1.81,6.73c0,2.61.85,4.45,2.55,5.55s4.2,1.64,7.52,1.64a20.58,20.58,0,0,0,9-1.93,19.71,19.71,0,0,0,6.45-4.69,27.49,27.49,0,0,0,4.35-7.18,70.83,70.83,0,0,0,4.87-16.41q10-5.54,16.3-9.24l.38.42a14.22,14.22,0,0,0,10.58,4.19q11.19,0,16.17-13.12a54.81,54.81,0,0,0,9.23-3.92,35.47,35.47,0,0,0-.29,4.37,14.41,14.41,0,0,0,2.66,8.88,9.07,9.07,0,0,0,7.74,3.56,13.19,13.19,0,0,0,8.71-3,20.41,20.41,0,0,0,5.66-7.52,15,15,0,0,0-.23,3.17,9.1,9.1,0,0,0,1.59,4.8q1.57,2.55,5.54,2.55a16.83,16.83,0,0,0,11.2-3.9,23.52,23.52,0,0,0,6.56-8.2A5,5,0,0,0,312,59.67ZM196.08,96q-3.45,5.64-7.29,5.65l-.8-.11c-.37,0-.56-.3-.56-.91q0-2.27,5.37-8.59t7.86-7.7A34.61,34.61,0,0,1,196.08,96Zm49.15-31.56a6.35,6.35,0,0,1-5,2,5.48,5.48,0,0,1-3.92-1.44l.53-.37q3-2,3-4.24a4.52,4.52,0,0,0-1.13-3.34A3.4,3.4,0,0,0,236.35,56a4.23,4.23,0,0,0-2.4.85,14.9,14.9,0,0,1,2.8-7.69A8.66,8.66,0,0,1,244.21,45h.11l2,.34A13.25,13.25,0,0,0,243,53.67c0,2.76,1.5,4.7,4.52,5.83A9.53,9.53,0,0,1,245.23,64.48Z"/><path class="cls-1" d="M436.11,2.6q-4.69,0-9.45,4.53a37.8,37.8,0,0,0-8,11.53,90.22,90.22,0,0,0-8.37,28.74l-3.11,1.75a2.82,2.82,0,0,0-1.53,2.66,5.85,5.85,0,0,0,0,.6,29.43,29.43,0,0,1-3,1.21A20.6,20.6,0,0,0,403,50a13.91,13.91,0,0,0-3.34-9.56,11.35,11.35,0,0,0-9-3.79,18,18,0,0,0-14.36,6.84,24.38,24.38,0,0,0-5.77,16.23,19,19,0,0,0,.18,2.55c-.86.41-1.84.94-2.95,1.58a57,57,0,0,0-8.2,5.72l6.1-25.45a5.61,5.61,0,0,0,.12-1.48,3.4,3.4,0,0,0-1.36-2.37,4.37,4.37,0,0,0-3-1.25,10.41,10.41,0,0,0-3.33.57,2.51,2.51,0,0,0-1-1.81,3.63,3.63,0,0,0-2.49-.9H354q-9.62,0-17.13,7.74A25.5,25.5,0,0,0,329.38,63a11.5,11.5,0,0,0,3.11,8.32q3.12,3.23,9.11,3.22A12,12,0,0,0,351.33,70l-.79,4.52Q324.41,90,324.41,102A8.68,8.68,0,0,0,327,108.7q2.55,2.39,7.41,2.38a16,16,0,0,0,8.88-2.6,21.29,21.29,0,0,0,6.84-7.58q4.65-8.37,7.92-22.28a114.82,114.82,0,0,1,11.26-6.17l5-2.45c.14.15.27.32.43.47a14.2,14.2,0,0,0,10.57,4.19q11.21,0,16.18-13.12A55.53,55.53,0,0,0,409.9,58a27.93,27.93,0,0,0,2.68,10.74,8.32,8.32,0,0,0,7.86,5h.79q10-1.12,17.87-9.73a4.67,4.67,0,0,0,1.59-3.33,3.75,3.75,0,0,0-1.25-2.89,4,4,0,0,0-2.71-1.13,3.39,3.39,0,0,0-2.49,1Q428.14,64,423.15,65h-.45q-3.39,0-3.39-9.84c0-1.36,0-2.79.11-4.3q12.45-6,18.89-7.35c1.59-.38,2.38-1.17,2.38-2.38a3.89,3.89,0,0,0-1.08-2.88,3.23,3.23,0,0,0-2.32-1.08q-2,0-9.38,2.61a56.85,56.85,0,0,0,11.82-12.95,31.56,31.56,0,0,0,5.37-15.22v-1A8.11,8.11,0,0,0,443,4.92C441.52,3.38,439.23,2.6,436.11,2.6ZM347.43,90.32a33.21,33.21,0,0,1-5,8.43q-3.28,4.06-6.78,4.07c-1.44,0-2.15-.79-2.15-2.37a8.89,8.89,0,0,1,1.86-5,26,26,0,0,1,3.9-4.46q3.73-3.06,10.41-8A34.1,34.1,0,0,1,347.43,90.32Zm5.94-34.89q-3.06,10.41-9.85,10.4c-2.18,0-3.28-1.5-3.28-4.52s1.6-6.35,4.81-10,6.84-5.64,10.92-5.94Zm37.77,9.05a6.31,6.31,0,0,1-5,2,5.4,5.4,0,0,1-4.7-2.32,11.36,11.36,0,0,1-1.64-6.61,14.72,14.72,0,0,1,2.83-8.43A8.66,8.66,0,0,1,390.12,45h.12l2,.34a13.21,13.21,0,0,0-3.4,8.31q0,4.14,4.53,5.83A9.55,9.55,0,0,1,391.14,64.48Zm41.35-39a89.58,89.58,0,0,1-11.15,12.27A54.5,54.5,0,0,1,426.77,21q4-7.57,8.26-7.58a.81.81,0,0,1,.91.91A19,19,0,0,1,432.49,25.51Z"/><path class="cls-1" d="M482.54,30.77a7.52,7.52,0,0,0,5.2-1.81,6.32,6.32,0,0,0,2-5q0-6.56-6.9-6.56a8.12,8.12,0,0,0-5.43,1.92,6.36,6.36,0,0,0-2.26,5.09C475.19,28.66,477.63,30.77,482.54,30.77Z"/><path class="cls-1" d="M512.79,2.6q-4.69,0-9.44,4.53a37.63,37.63,0,0,0-8,11.53A90,90,0,0,0,487,47.4l-3.11,1.75a2.82,2.82,0,0,0-1.53,2.66,5.11,5.11,0,0,0,1,3.11c.64.87,1.26,1.3,1.87,1.3a6.52,6.52,0,0,0,1.36-.11c0,1.09.1,2.14.21,3.16q-6,6.67-9.94,6.68-3.51,0-3.51-5.66,0-7.8,5.43-18.21a5.22,5.22,0,0,0,.57-2.38,2.7,2.7,0,0,0-1.42-2.2,6.39,6.39,0,0,0-3.67-1q-3.74,0-6.05,3.9a39.28,39.28,0,0,0-3.91,9.67,40.64,40.64,0,0,0-1.58,10.63q0,6.34,3.17,10a10.22,10.22,0,0,0,8.14,3.68,21,21,0,0,0,9.9-2.6A27.9,27.9,0,0,0,489,68.25c.08.17.16.35.25.52a8.31,8.31,0,0,0,7.86,5h.79q9.94-1.12,17.87-9.73a4.67,4.67,0,0,0,1.59-3.33,3.75,3.75,0,0,0-1.25-2.89,4,4,0,0,0-2.71-1.13,3.39,3.39,0,0,0-2.49,1Q504.83,64,499.84,65h-.45Q496,65,496,55.2c0-1.36,0-2.79.11-4.3q12.43-6,18.89-7.35c1.58-.38,2.38-1.17,2.38-2.38a3.89,3.89,0,0,0-1.08-2.88A3.24,3.24,0,0,0,514,37.21c-1.36,0-4.48.87-9.39,2.61a56.4,56.4,0,0,0,11.82-12.95,31.48,31.48,0,0,0,5.38-15.22v-1a8.11,8.11,0,0,0-2.15-5.71C518.21,3.38,515.92,2.6,512.79,2.6Zm-3.61,22.91A90.25,90.25,0,0,1,498,37.78,54.5,54.5,0,0,1,503.46,21q4-7.57,8.26-7.58a.8.8,0,0,1,.9.91A19,19,0,0,1,509.18,25.51Z"/><path class="cls-1" d="M535.93,57.8a8.13,8.13,0,0,0-6.17,2.32,8.74,8.74,0,0,0-2.2,6.28q0,7.57,7.69,7.58a8.08,8.08,0,0,0,6.22-2.43,9,9,0,0,0,2.26-6.4Q543.73,57.8,535.93,57.8Z"/><path class="cls-1" d="M558.72,1.41A6.11,6.11,0,0,0,554.42,0a6.34,6.34,0,0,0-4.52,1.64,7.9,7.9,0,0,0-2.32,4.24l-9.5,38.46a3.8,3.8,0,0,0-.12,1.13,2.15,2.15,0,0,0,.62,1.47,2.48,2.48,0,0,0,1.93.68c.86,0,1.6-.64,2.2-1.92l15.16-32.35c1.58-3.4,2.38-6.11,2.38-8.15A4.93,4.93,0,0,0,558.72,1.41Z"/></g></g></svg>